<svg xmlns="http://www.w3.org/2000/svg" width="30" height="29.998" viewBox="0 0 30 29.998">
  <path id="Path_83965" data-name="Path 83965" d="M200.83,110.891a11.436,11.436,0,0,0-22.68,2.955,11.275,11.275,0,0,0,2.3,5.488l-4.837,4.837-2.193-2.193a1.466,1.466,0,0,0-2.07,2.076l2.187,2.187-2.093,2.093a1.468,1.468,0,0,0,2.076,2.076l2.093-2.093,2.187,2.187a1.46,1.46,0,0,0,1.038.428,1.437,1.437,0,0,0,1.032-.428,1.465,1.465,0,0,0,0-2.076l-2.187-2.187,4.837-4.837a11.234,11.234,0,0,0,6.966,2.4,11.434,11.434,0,0,0,11.34-12.912Zm-5.33,7.488a8.469,8.469,0,0,1-11.967.041.324.324,0,0,0-.041-.053.315.315,0,0,0-.053-.041,8.5,8.5,0,0,1,7.165-14.389,8.5,8.5,0,0,1,4.9,14.441Z" transform="translate(-170.925 -100.935)" fill="#b5ada9"/>
</svg>
